<svg xmlns="http://www.w3.org/2000/svg" width="52" height="52" fill="none"><path fill="#fff" d="M0 0h52v52H0z"/><path fill="#41B7E9" d="m45.6711 41.0967-1.2145-13.3598c-1.7805 1.2078-3.0847 3.0311-3.6173 5.1606-.3414 1.3688-1.5709 2.3283-2.9808 2.3283h-23.717c-1.4099 0-2.6394-.9595-2.9816-2.3283-.5326-2.1295-1.83681-3.9528-3.61739-5.1606L5.9238 45.5402c-.03523.385.03774.7716.21052 1.1172.35309.7045 1.07271 1.149 1.85941 1.149H44.0063c.7867 0 1.5063-.4445 1.8585-1.149.1728-.3456.2458-.733.2106-1.1172l-.2517-2.766-.1526-1.6775Z"/><path fill="#1F2428" d="m51.7643 42.7021-6.63-22.1009c-.5368-1.7873-2.1513-2.9883-4.0182-2.9883h-2.5355v-5.0323C38.5806 5.64284 32.937 0 26 0S13.4194 5.64284 13.4194 12.5806v5.0323h-2.5355c-1.86693 0-3.48061 1.201-4.01738 2.9883L.235677 42.7029C.0796774 43.2263 0 43.7681 0 44.3124c0 .7624.152645 1.5046.452903 2.2075L2.80213 52H49.1979l2.35-5.4801c.2995-.7029.4521-1.4451.4521-2.2075 0-.5443-.0797-1.0861-.2357-1.6103ZM8.47264 21.0835c.32207-1.0727 1.29078-1.7932 2.41126-1.7932h2.5355v5.0323h1.6774v-11.742c0-6.01183 4.8913-10.90318 10.9032-10.90318S36.9032 6.56877 36.9032 12.5806v11.742h1.6774v-5.0323h2.5355c1.1205 0 2.0883.7205 2.4104 1.7932l1.5919 5.3065c-2.522 1.253-4.4049 3.5528-5.0918 6.3046-.2491.9964-1.1415 1.6925-2.1681 1.6925h-23.717c-1.0274 0-1.919-.6961-2.1689-1.6925-.6869-2.7527-2.56983-5.0524-5.09183-6.3054l1.59187-5.3057ZM50.0055 45.8598l-1.9131 4.4628H3.90755l-1.91226-4.4628c-.21135-.4923-.31787-1.0132-.31787-1.5474 0-.3816.05535-.7616.16523-1.1289l4.55167-15.1723c.09142.0495.17697.1091.26671.1627L5.08845 45.4656c-.0478.5401.05452 1.0828.2969 1.5676.4982.9947 1.4971 1.612 2.60839 1.612H44.0063c1.1112 0 2.111-.6173 2.6083-1.612.2424-.4848.3448-1.0275.2969-1.5693l-.2516-2.7669-1.6707.1527.2516 2.7652c.0202.2306-.0226.4621-.1258.6685-.2122.4227-.6365.6843-1.1087.6843H7.99374c-.47303 0-.89658-.2616-1.10793-.6843-.10316-.2064-.14678-.437-.12581-.6668l1.47445-16.2165c1.01065 1.0124 1.75794 2.2813 2.11185 3.7021.4362 1.7437 1.997 2.9623 3.7952 2.9623h23.7162c1.799 0 3.359-1.2186 3.7951-2.9631.3548-1.42 1.1013-2.6889 2.1119-3.7013l1.0702 11.773 1.6707-.1526-1.1675-12.8466c.0898-.0528.1745-.1132.2667-.1627l4.5517 15.1714c.1107.3682.1661.7482.1661 1.1298 0 .5342-.1065 1.0551-.3171 1.5474Z"/><path fill="#1F2428" d="m18.4516 19.2853 7.4435-.047h7.6533v5.0843h1.6774V12.5807c0-5.08681-4.139-9.22584-9.2258-9.22584-5.0868 0-9.2258 4.13903-9.2258 9.22584v11.7419h1.6774v-5.0373ZM26 5.03228c4.1625 0 7.5484 3.38587 7.5484 7.54842v4.9802h-7.6583l-7.4385.047v-5.0272c0-4.16255 3.3859-7.54842 7.5484-7.54842ZM29.3548 31.0322h-6.7097v1.6774h6.7097v-1.6774Z"/></svg>