<svg xmlns="http://www.w3.org/2000/svg" width="52" height="52" fill="none"><path fill="#fff" d="M0 0h52v52H0z"/><path fill="#41B7E9" d="M17.6129 37.7419c5.5585 0 10.0645-4.506 10.0645-10.0645 0-5.5584-4.506-10.0645-10.0645-10.0645S7.5484 22.119 7.5484 27.6774c0 5.5585 4.506 10.0645 10.0645 10.0645ZM46.1291 36.9033H37.742c-1.3873 0-2.5162-1.1289-2.5162-2.5162v-5.0322c0-1.3873 1.1289-2.5162 2.5162-2.5162h8.3871c1.3872 0 2.5161 1.1289 2.5161 2.5162v5.0322c0 1.3873-1.1289 2.5162-2.5161 2.5162ZM35.2258 39.4193h13.4194v4.1936H35.2258v-4.1936Z"/><path fill="#1F2428" d="M47.8064 10.0645H34.2101c-.5107-1.00056-1.1909-1.88121-1.9953-2.61592l11.8787-3.46555c.4579.63239 1.1968 1.04923 2.0355 1.04923 1.3873 0 2.5162-1.12891 2.5162-2.51613C48.6452 1.1289 47.5163 0 46.129 0c-1.3377 0-2.4247 1.05258-2.5018 2.37187L30.4938 6.2031C29.1468 5.44994 27.607 5.03226 26 5.03226c-1.607 0-3.1468.41768-4.4938 1.17084L8.37284 2.37187C8.29568 1.05258 7.20871 0 5.87097 0 4.48374 0 3.35484 1.1289 3.35484 2.51613c0 1.38722 1.1289 2.51613 2.51613 2.51613.83871 0 1.57761-.41684 2.03555-1.04923L19.7852 7.44858c-.8052.73471-1.4846 1.61619-1.9953 2.61592H4.19355C1.88123 10.0645 0 11.9457 0 14.2581v30.1935c0 2.3123 1.88123 4.1936 4.19355 4.1936h2.51613v.8387c0 1.3872 1.1289 2.5161 2.51613 2.5161h1.67739c1.3873 0 2.5162-1.1289 2.5162-2.5161v-.8387h18.5363C32.3457 50.5566 34.039 52 36.0645 52h11.7419C50.1188 52 52 50.1188 52 47.8064V14.2581c0-2.3124-1.8812-4.1936-4.1936-4.1936ZM46.129 1.67742c.463 0 .8387.37574.8387.83871 0 .46297-.3757.83871-.8387.83871-.4629 0-.8387-.37574-.8387-.83871 0-.46297.3758-.83871.8387-.83871ZM5.87097 3.35484c-.46297 0-.83871-.37574-.83871-.83871 0-.46297.37574-.83871.83871-.83871.46297 0 .83871.37574.83871.83871 0 .46297-.37574.83871-.83871.83871ZM26 6.70968c2.543 0 4.8712 1.28826 6.2576 3.35482H19.7424C21.1288 7.99794 23.457 6.70968 26 6.70968ZM1.67742 44.4516V14.2581c0-1.3873 1.1289-2.5162 2.51613-2.5162H47.8064c1.3873 0 2.5162 1.1289 2.5162 2.5162v6.7314c-.4898-.3707-1.0543-.6483-1.6774-.7749v-5.1178c0-.9251-.7524-1.6774-1.6775-1.6774H5.03226c-.9251 0-1.67742.7523-1.67742 1.6774v25.1613c0 .9251.75232 1.6774 1.67742 1.6774H31.871v5.0322H4.19355c-1.38723 0-2.51613-1.1289-2.51613-2.5161ZM46.9677 20.129H36.0645c-2.3123 0-4.1935 1.8813-4.1935 4.1936v15.9355H5.03226V15.0968H46.9677v5.0322Zm-10.9032 1.6775h11.7419c1.092 0 2.0146.7036 2.3619 1.6774H33.7027c.3472-.9738 1.2698-1.6774 2.3618-1.6774ZM11.7419 49.4839c0 .4629-.3757.8387-.8387.8387H9.22581c-.46297 0-.83871-.3758-.83871-.8387v-.8387h3.3548v.8387Zm36.0645.8387H36.0645c-1.3872 0-2.5161-1.1289-2.5161-2.5162v-.8387h16.7742v.8387c0 1.3873-1.1289 2.5162-2.5162 2.5162Zm2.5162-5.0323H33.5484v-20.129h16.7742v20.129Z"/><path fill="#1F2428" d="M17.6129 38.5806c6.0119 0 10.9032-4.8913 10.9032-10.9032s-4.8913-10.9032-10.9032-10.9032S6.70966 21.6655 6.70966 27.6774 11.601 38.5806 17.6129 38.5806Zm-1.8452-4.9702c.6022-.0386 1.217-.062 1.8452-.062.6282 0 1.243.0234 1.8451.062-.5585 2.1522-1.3411 3.2928-1.8451 3.2928-.5041 0-1.2866-1.1406-1.8452-3.2928Zm-.702 2.9271c-1.4493-.4177-2.7509-1.18-3.8144-2.1949.8412-.2457 1.7973-.4386 2.8348-.5728.2558 1.0551.5804 2.002.9796 2.7677Zm5.0491-8.0214c-.0353 1.2874-.1477 2.4331-.3112 3.4354-.7138-.052-1.4459-.0806-2.1907-.0806-.7448 0-1.477.0286-2.1907.0806-.1636-1.0023-.276-2.148-.3112-3.4354h5.0038Zm-5.0038-1.6774c.0352-1.2874.1476-2.4331.3112-3.4354.7137.052 1.4459.0805 2.1907.0805.7448 0 1.4769-.0285 2.1907-.0805.1635 1.0023.2759 2.148.3112 3.4354H15.111Zm6.0287 6.9319c1.0374.1342 1.9936.3271 2.8348.5729-1.0627 1.0148-2.3643 1.7772-3.8145 2.1949.3993-.7666.7239-1.7135.9797-2.7678Zm.3254-1.6464c.1828-1.1482.2935-2.3702.3271-3.6081h5.0037c-.1493 1.6447-.7322 3.1628-1.6321 4.446-1.0576-.3699-2.3174-.6525-3.6987-.8379Zm.3271-5.2855c-.0336-1.2379-.1451-2.4599-.3271-3.6081 1.3805-.1854 2.6411-.468 3.6987-.8379.9008 1.2824 1.4837 2.8013 1.6321 4.446h-5.0037Zm-.6525-5.2545c-.255-1.0543-.5804-2.0012-.9797-2.7669 1.4493.4176 2.751 1.18 3.8145 2.1949-.8412.2449-1.7982.4386-2.8348.572Zm-1.6817.1602c-.6021.0385-1.2169.062-1.8451.062-.6282 0-1.243-.0235-1.8452-.062.5586-2.1522 1.3411-3.2928 1.8452-3.2928.504 0 1.2866 1.1406 1.8451 3.2928Zm-5.3719-.1602c-1.0375-.1342-1.9936-.3271-2.8348-.5729 1.0626-1.0148 2.3643-1.7772 3.8144-2.1949-.3992.7666-.7238 1.7135-.9796 2.7678Zm-.3254 1.6464c-.1829 1.1482-.2936 2.3702-.3271 3.6081H8.42985c.14929-1.6447.73219-3.1628 1.63215-4.446 1.0576.3699 2.3173.6525 3.6987.8379Zm-.3271 5.2855c.0335 1.2379.1451 2.4599.3271 3.6081-1.3805.1854-2.6411.468-3.6987.8379-.9008-1.2824-1.4837-2.8013-1.63215-4.446h5.00375ZM6.70966 43.6129h1.67742v1.6774H6.70966v-1.6774ZM10.0645 43.6129h1.6774v1.6774h-1.6774v-1.6774ZM13.4194 43.6129h1.6774v1.6774h-1.6774v-1.6774ZM35.2258 41.9354h10.0645v1.6774H35.2258v-1.6774ZM46.9678 41.9354h1.6774v1.6774h-1.6774v-1.6774ZM35.2258 38.5807h13.4194v1.6774H35.2258v-1.6774Z"/></svg>