<svg xmlns="http://www.w3.org/2000/svg" width="52" height="52" fill="none"><path fill="#fff" d="M0 0h52v52H0z"/><path fill="#41B7E9" d="M49.01 4.24034 45.3314 0l-.6341.639604C43.233 2.11679 41.2872 2.92983 39.2164 2.92983h-8.8132c-5.6655 0-10.2742 4.64897-10.2742 10.36397 0 1.3621.2617 2.6912.7758 3.9501l.2164.528.0847-.0009c.4898-1.2572 1.6967-2.1506 3.1167-2.1506H26v-1.2928c0-1.2817.7179-2.4535 1.8544-3.0271l1.5004-.7563c0 .9348.7507 1.692 1.6775 1.692h11.7419c1.8527 0 3.3548 1.5153 3.3548 3.3842h1.6774c1.3336 0 2.4751.791 3.016 1.9273h.0009l.2147-.511c.6383-1.5161.962-3.1202.962-4.7675 0-2.95517-1.0626-5.80632-2.99-8.02886Z"/><path fill="#1F2428" d="M47.8064 14.7744h-.9234c-.39-1.9281-2.0833-3.3841-4.1088-3.3841H31.0323c-.463 0-.8388-.3799-.8388-.8461 0-.4662.3758-.84602.8388-.84602h.8387V8.0061h-.8387c-1.1994 0-2.205.85027-2.4558 1.98481l-1.0979.55329c-1.4291.7208-2.3173 2.1709-2.3173 3.7835v.4467h-.8387c-2.3123 0-4.1936 1.8977-4.1936 4.2302s1.8813 4.2302 4.1936 4.2302h.8387c0 3.9645 2.475 7.3487 5.9439 8.6871-1.6329 1.0728-2.7166 2.83-2.8977 4.841l-.2449 2.7158-1.9022-.5482c1.0366-1.3309 1.617-2.9772 1.617-4.6972 0-4.1989-3.3859-7.6144-7.5484-7.6144-1.7923 0-3.4378.6362-4.7345 1.6921h-.3648l-.6358-7.6905c-.114-1.3807-1.2782-2.4619-2.652-2.4619-1.3738 0-2.5379 1.0812-2.65196 2.4619l-.63575 7.6905H8.3871c-1.8502 0-3.35484 1.5178-3.35484 3.3842 0 .7013.21303 1.3536.57619 1.8942-1.30755.462-2.25361 1.7065-2.25361 3.182 0 .7013.21303 1.3536.57619 1.8943-1.30755.4619-2.25361 1.7064-2.25361 3.1819 0 .6193.17781 1.1921.46632 1.6921h-.46632C.752322 43.5397 0 44.2986 0 45.2318c0 1.8663 1.50464 3.3841 3.35484 3.3841H13.4194v1.6921c0 .9332.7523 1.6921 1.6774 1.6921h18.4516c4.1625 0 7.5484-3.4155 7.5484-7.6144v-8.7099c0-1.3063-.5192-2.4908-1.3571-3.3605 4.129-.9239 7.228-4.6414 7.228-9.0805h.8387c2.3124 0 4.1936-1.8977 4.1936-4.2302s-1.8812-4.2302-4.1936-4.2302Zm-23.4838 6.7683c-1.3872 0-2.5161-1.1388-2.5161-2.5381 0-1.3994 1.1289-2.5381 2.5161-2.5381h.8387v5.0762h-.8387Zm5.5564 15.3742c.1409-1.5677 1.0157-2.9315 2.3333-3.709-.1535.2589-.2918.5279-.3958.8181l-2.1438 5.9451-.0671-.0195.2734-3.0347Zm4.8562 5.627-.8144.9137c-1.0065 1.1278-2.4465 1.775-3.9512 1.775-.8211 0-1.6422-.1954-2.3769-.566L20.8 41.2401c-.931-.4704-1.5097-1.4145-1.5097-2.4645 0-1.1057.8907-2.0042 1.9869-2.0042.9134 0 1.706.6244 1.9282 1.5186l.4211 1.6989 5.912 1.7039.6987 2.1142 1.5902-.5355-.7465-2.2581.1476-.4086c.9444.9907 2.1689 1.6633 3.5067 1.9391Zm1.3679.9958 3.3163-3.7184v3.7184h-3.3163Zm-17.4896-7.2869c-.6198-.4721-1.0006-1.2107-1.0006-2.0195 0-1.3994 1.1289-2.5381 2.5161-2.5381 1.3873 0 2.5162 1.1387 2.5162 2.5381 0 .3638-.0831.7115-.2265 1.0338-.3615-.1193-.7439-.1878-1.1415-.1878-1.0517 0-1.9944.4552-2.6637 1.1735Zm1.5155-7.9418c3.2366 0 5.871 2.6574 5.871 5.9223 0 1.3029-.4252 2.555-1.1918 3.5753-.1728-.6438-.5091-1.2039-.9553-1.6506.3011-.5939.4697-1.253.4697-1.9247 0-2.3326-1.8812-4.2302-4.1936-4.2302-2.3123 0-4.1935 1.8976-4.1935 4.2302 0 1.4238.7079 2.7174 1.846 3.4941-.099.335-.1686.6819-.1686 1.0482 0 .2894.0369.5711.0889.8469-2.0414-.9433-3.4437-3.0339-3.4437-5.3892 0-3.2649 2.6344-5.9223 5.8709-5.9223Zm-9.3684-7.55c.0428-.511.4731-.9104.9813-.9104.5083 0 .9386.4002.9813.9104l.624 7.55h-3.2097l.6231-7.55Zm-2.3735 9.2421h5.4701c-.6576.989-1.0904 2.1421-1.2271 3.3841h-4.243c-.9251 0-1.67742-.7589-1.67742-1.692 0-.9332.75232-1.6921 1.67742-1.6921Zm-1.67742 5.0762h5.92382c.1384 1.2344.5762 2.3884 1.2404 3.3842H6.70968c-.9251 0-1.67742-.7589-1.67742-1.6921 0-.9332.75232-1.6921 1.67742-1.6921ZM3.35484 46.9238c-.9251 0-1.67742-.7589-1.67742-1.692H13.4194v1.692H3.35484Zm10.06456-3.3841H5.03226c-.9251 0-1.67742-.7589-1.67742-1.6921 0-.9332.75232-1.6921 1.67742-1.6921H15.4004c.9393.7682 2.0691 1.3088 3.3087 1.5491.3699.4239.8186.786 1.3411 1.05l1.5583.7859h-3.6224c-.582-1.0068-1.6522-1.6921-2.8885-1.6921-.9259-.0008-1.6782.7581-1.6782 1.6913Zm2.5161 6.7683h-.8387v-6.7683c.9251 0 1.6774.7589 1.6774 1.6921v5.0762h-.8387Zm17.6129 0H18.4516v-5.0762h6.5109l1.8787.9475c.9662.4865 2.0473.7445 3.1276.7445 1.6698 0 3.2743-.6117 4.5324-1.692h4.8511c-.4093 2.8646-2.8525 5.0762-5.8039 5.0762Zm5.871-14.2185c0 .7749-.2835 1.5203-.7977 2.0973l-2.5111 2.8148h-.0461c-1.6774 0-3.2366-.8579-4.1675-2.2496l1.4954-4.1473c.4445-1.2344 1.6187-2.0627 2.9195-2.0627 1.7135 0 3.1075 1.4061 3.1075 3.1346v.4129Zm5.8709-12.8547c0 4.1989-3.3859 7.6143-7.5484 7.6143H34.3871c-4.1625 0-7.5484-3.4154-7.5484-7.6143v-8.9071c0-.9679.5334-1.8376 1.3906-2.2699l.5938-.2995c.4277.7885 1.2572 1.324 2.2092 1.324h11.7419c1.3872 0 2.5161 1.1388 2.5161 2.5381v7.6144Zm2.5161-1.6921h-.8387v-5.0762h.8387c1.3873 0 2.5162 1.1387 2.5162 2.5381 0 1.3993-1.1289 2.5381-2.5162 2.5381Z"/><path fill="#1F2428" d="M31.871 24.927c0 2.3325 1.8812 4.2302 4.1935 4.2302 2.3123 0 4.1936-1.8977 4.1936-4.2302v-.8461H31.871v.8461Zm6.5662.846c-.3464.9848-1.279 1.6921-2.3727 1.6921-1.0937 0-2.0263-.7073-2.3727-1.6921h4.7454ZM33.5484 19.0045h1.6774c0-1.8663-1.5047-3.3841-3.3548-3.3841-1.8502 0-3.3549 1.5178-3.3549 3.3841h1.6774c0-.9332.7524-1.6921 1.6775-1.6921.925 0 1.6774.7589 1.6774 1.6921ZM40.258 15.6204c-1.8502 0-3.3548 1.5178-3.3548 3.3841h1.6774c0-.9332.7523-1.6921 1.6774-1.6921s1.6775.7589 1.6775 1.6921h1.6774c0-1.8663-1.5047-3.3841-3.3549-3.3841Z"/></svg>