<svg xmlns="http://www.w3.org/2000/svg" width="52" height="52" fill="none"><path fill="#fff" d="M0 0h52v52H0z"/><path fill="#41B7E9" d="M46.9677 48.6464h-8.3871c-.9251 0-1.6774-.752-1.6774-1.6768v-3.3538c0-.9248.7523-1.6768 1.6774-1.6768h8.3871c.9251 0 1.6774.752 1.6774 1.6768v3.3538c0 .9248-.7523 1.6768-1.6774 1.6768Z"/><path fill="#1F2428" d="M33.5484 29.3623v-6.7074c0-1.0917-.7036-2.014-1.6774-2.3611v-7.7001c0-1.0917-.7037-2.0139-1.6774-2.3611V6.01533c0-2.26125-1.1432-4.38835-2.985-5.551258-.9796-.618763-1.4375-.618763-2.4188 0-1.8401 1.162908-2.9833 3.290008-2.9833 5.551258v4.21727c-.9737.3472-1.6774 1.2694-1.6774 2.3611v7.7001c-.9738.3471-1.6774 1.2694-1.6774 2.3611v6.7074c0 1.0917.7036 2.0139 1.6774 2.3611v7.7001c0 1.0917.7037 2.0139 1.6774 2.361v4.2174c0 2.2612 1.1432 4.3883 2.985 5.5512.4898.3094.8622.4469 1.2085.4469.3464 0 .7188-.1375 1.2095-.4469 1.8409-1.1629 2.9841-3.29 2.9841-5.5512v-4.2174c.9737-.3471 1.6774-1.2693 1.6774-2.361v-7.7001c.9738-.3472 1.6774-1.2694 1.6774-2.3611Zm-12.5806.8385c-.3607 0-.6618-.2306-.78-.5501l7.8369-7.8343h3.0076c.3607 0 .6617.2306.78.55l-7.8369 7.8344h-3.0076Zm4.7177-28.3181c.1577-.09977.2584-.1484.3145-.17188.0562.02348.1577.07294.3137.17188 1.3587.85688 2.2025 2.44152 2.2025 4.13263v4.06307h-5.0323V6.01533c0-1.69111.8438-3.27575 2.2016-4.13263Zm-3.0403 9.8725h6.7097c.463 0 .8387.3757.8387.8385v7.5459h-8.3871v-7.5459c0-.4628.3757-.8385.8387-.8385Zm-1.6774 10.0612h4.685l-5.5237 5.5219v-4.6834c0-.4629.3757-.8385.8387-.8385Zm5.3468 28.3181c-.1577.0989-.2584.1484-.3146.1719-.0561-.0235-.1576-.073-.3136-.1719-1.3587-.8569-2.2025-2.4415-2.2025-4.1326v-4.0631h5.0323v4.0631c0 1.6911-.8438 3.2757-2.2016 4.1326Zm3.0403-9.8726h-6.7097c-.463 0-.8387-.3756-.8387-.8384v-7.5459h8.3871v7.5459c0 .4628-.3757.8384-.8387.8384Zm1.6774-10.0611h-4.685l5.5237-5.522v4.6835c0 .4628-.3757.8385-.8387.8385ZM50.3225 30.3549v-2.6695c0-1.0917-.7036-2.014-1.6774-2.3611V10.9167c0-1.09163-.7037-2.0139-1.6774-2.36101v-6.0233c0-1.38677-1.1289-2.5153002-2.5161-2.5153002h-3.3549c-1.3872 0-2.5161 1.1285302-2.5161 2.5153002v6.0233c-.9737.34711-1.6774 1.26938-1.6774 2.36101v14.4076c-.9738.3471-1.6774 1.2694-1.6774 2.3611v2.6695c-.9738.3471-1.6775 1.2694-1.6775 2.3611v16.7686c0 2.3334 7.062 2.5153 9.2258 2.5153 2.1639 0 9.2259-.1819 9.2259-2.5153V32.716c0-1.0917-.7037-2.014-1.6775-2.3611ZM41.0967 1.69395h3.3549c.4629 0 .8387.37562.8387.83844v5.86902H40.258V2.53239c0-.46282.3758-.83844.8387-.83844Zm-1.6774 8.38435h6.7097c.463 0 .8387.3756.8387.8384v14.2534h-8.3871V10.9167c0-.4628.3757-.8384.8387-.8384Zm-1.6774 16.7686h10.0645c.463 0 .8387.3756.8387.8385v2.5153H36.9032v-2.5153c0-.4629.3757-.8385.8387-.8385Zm-1.6774 5.0306h13.4193c.463 0 .8387.3756.8387.8385v2.5153H35.2258V32.716c0-.4629.3757-.8385.8387-.8385Zm14.258 5.0306v1.6769H35.2258v-1.6769h15.0967ZM42.7741 50.323c-4.3302 0-6.9646-.6481-7.5483-1.0338v-9.0274h15.0967v9.0274c-.5837.3857-3.2181 1.0338-7.5484 1.0338ZM16.7742 30.3549v-2.6695c0-1.0917-.7037-2.014-1.6774-2.3611v-9.377c0-1.0916-.7037-2.0139-1.6774-2.361V2.53239c0-1.38677-1.1289-2.5153002-2.5162-2.5153002H7.54839c-1.38723 0-2.51613 1.1285302-2.51613 2.5153002V13.5863c-.97374.3471-1.67742 1.2694-1.67742 2.361v9.377c-.97374.3471-1.67742 1.2694-1.67742 2.3611v2.6695C.703677 30.702 0 31.6243 0 32.716v16.7686c0 2.3334 7.06194 2.5153 9.22581 2.5153 2.16389 0 9.22579-.1819 9.22579-2.5153V32.716c0-1.0917-.7037-2.014-1.6774-2.3611ZM7.54839 1.69395h3.35481c.463 0 .8387.37562.8387.83844V13.432H6.70968V2.53239c0-.46282.37574-.83844.83871-.83844ZM5.87097 15.1089h6.70963c.463 0 .8388.3756.8388.8384v9.2228H5.03226v-9.2228c0-.4628.37574-.8384.83871-.8384Zm-1.67742 11.738H14.2581c.4629 0 .8387.3756.8387.8385v2.5153H3.35484v-2.5153c0-.4629.37574-.8385.83871-.8385Zm-1.67742 5.0306H15.9355c.463 0 .8387.3756.8387.8385v2.5153H1.67742V32.716c0-.4629.37574-.8385.83871-.8385Zm14.25807 5.0306v1.6769H1.67742v-1.6769H16.7742ZM9.22581 50.323c-4.33026 0-6.96465-.6481-7.54839-1.0338v-9.0274H16.7742v9.0274c-.5837.3857-3.2181 1.0338-7.54839 1.0338Z"/><path fill="#41B7E9" d="M13.4194 48.6464H5.03228c-.9251 0-1.67742-.752-1.67742-1.6768v-3.3538c0-.9248.75232-1.6768 1.67742-1.6768h8.38712c.9251 0 1.6774.752 1.6774 1.6768v3.3538c0 .9248-.7523 1.6768-1.6774 1.6768Z"/></svg>