<svg xmlns="http://www.w3.org/2000/svg" width="52" height="52" fill="none"><path fill="#F2F6FC" d="M0 0h52v52H0z"/><path fill="#41B7E9" d="M36.9032 26.8387H31.871c-.9251 0-1.6775-.7524-1.6775-1.6775v-1.6774c0-.9251.7524-1.6774 1.6775-1.6774h5.0322c.9251 0 1.6774.7523 1.6774 1.6774v1.6774c0 .9251-.7523 1.6775-1.6774 1.6775Zm-5.0322-3.3549v1.6791l5.0322-.0017v-1.6774H31.871ZM20.129 26.8387h-5.0322c-.9251 0-1.6775-.7524-1.6775-1.6775v-1.6774c0-.9251.7524-1.6774 1.6775-1.6774h5.0322c.9251 0 1.6774.7523 1.6774 1.6774v1.6774c0 .9251-.7523 1.6775-1.6774 1.6775Z"/><path fill="#41B7E9" d="M36.9032 26.8387H31.871c-.9251 0-1.6775-.7524-1.6775-1.6775v-1.6774c0-.9251.7524-1.6774 1.6775-1.6774h5.0322c.9251 0 1.6774.7523 1.6774 1.6774v1.6774c0 .9251-.7523 1.6775-1.6774 1.6775ZM26 39.3003 8.38708 29.614v8.6236L26 47.9256l17.6129-9.688V29.614L26 39.3003Z"/><path fill="#1F2428" d="M16.7742 11.7419h5.0323v1.6775h-5.0323v-1.6775Z"/><path fill="#1F2428" d="M52 24.5884c0-5.8927-4.1818-11.0659-9.9437-12.3005l-2.3325-.4998c-.1174-.1762-.2524-.3422-.4051-.4949l-.4286-.4286c.8765-1.14144 1.368-2.56389 1.368-4.01066C40.2581 3.07471 37.1834 0 33.4041 0H18.5959c-3.7793 0-6.854 3.07471-6.854 6.85394 0 1.44761.4915 2.86922 1.3688 4.01066l-.4286.4286c-.1526.1527-.2885.3187-.4051.4949l-2.33158.4998C4.18181 13.5225 0 18.6957 0 24.5884v2.7418c0 .7297.209677 1.4275.601355 2.0246C.209677 29.952 0 30.6498 0 31.3795v6.0152c0 .7297.209677 1.4275.601355 2.0247C.209677 40.0165 0 40.7143 0 41.444v4.3378c0 .6165.166065 1.2019.447871 1.7311C.172774 47.8123 0 48.2074 0 48.6452v1.6774C0 51.2477.752322 52 1.67742 52H8.3871c.81019 0 1.48787-.5779 1.6439-1.3436.9385.8362 2.1613 1.3436 3.4915 1.3436h24.955c1.3302 0 2.553-.5074 3.4915-1.3436.156.7657.8337 1.3436 1.6439 1.3436h6.7097C51.2477 52 52 51.2477 52 50.3226v-1.6774c0-.4378-.1728-.8329-.4479-1.1323.2818-.5292.4479-1.1146.4479-1.7311V41.444c0-.7297-.2097-1.4275-.6014-2.0246.3917-.5972.6014-1.295.6014-2.0247v-6.0152c0-.7297-.2097-1.4275-.6014-2.0247.3917-.5971.6014-1.2949.6014-2.0246v-2.7418ZM14.851 10.3103c-.91-.91004-1.4316-2.16978-1.4316-3.45636 0-2.85413 2.3223-5.17652 5.1765-5.17652h14.8082c2.8542 0 5.1765 2.32239 5.1765 5.17652 0 1.28658-.5216 2.54632-1.4316 3.45636l-.593.5929 1.5759 1.576c.2852.2851.4487.6802.4487 1.0844 0 .8454-.6877 1.5332-1.5331 1.5332h-8.8518l-.8781-1.7554c.6911-.208 1.1985-.8421 1.1985-1.5995v-1.6774h5.0323c1.8502 0 3.3548-1.50463 3.3548-3.35482 0-1.8502-1.5046-3.35484-3.3548-3.35484H18.4516c-1.8502 0-3.3548 1.50464-3.3548 3.35484 0 1.85019 1.5046 3.35482 3.3548 3.35482h5.0323v1.6774c0 .7574.5074 1.3915 1.1976 1.5995l-.8772 1.7554h-8.8518c-.8454 0-1.5331-.6878-1.5331-1.5332 0-.4034.1635-.7993.4487-1.0844l1.5759-1.576-.593-.5929Zm10.3103 9.8187v-3.9956L26 14.456l.8387 1.6774v3.9956h-1.6774ZM18.4516 8.3871c-.9251 0-1.6774-.75233-1.6774-1.67742 0-.9251.7523-1.67742 1.6774-1.67742h15.0968c.9251 0 1.6774.75232 1.6774 1.67742 0 .92509-.7523 1.67742-1.6774 1.67742H18.4516Zm6.7097 1.6774h1.6774v1.6774h-1.6774v-1.6774ZM1.67742 48.6452h1.67742v1.6774H1.67742v-1.6774Zm6.70968 1.6774H5.03226v-1.6774H8.3871v1.6774Zm1.6774-2.6453V20.129H8.3871v26.8387H2.06826c-.24994-.3438-.39084-.7531-.39084-1.1859V41.444c0-.4328.1409-.8421.39084-1.1859h4.64142v-1.6775H2.06826c-.24994-.3438-.39084-.7531-.39084-1.1859v-6.0152c0-.4328.1409-.8421.39084-1.186h2.964v-1.6774h-2.964c-.24994-.3438-.39084-.7531-.39084-1.1859v-2.7418c0-5.1077 3.62406-9.5914 8.61858-10.6608l1.451-.3111c.0302 1.7453 1.4543 3.1577 3.2055 3.1577h8.5314v3.3548c0 .9251.7523 1.6775 1.6774 1.6775v28.5161H13.5225c-1.6237 0-3.0311-1.0853-3.458-2.6453Zm31.871-27.5483v27.5483c-.4269 1.56-1.8343 2.6453-3.458 2.6453H26.8387V21.8065c.9251 0 1.6774-.7524 1.6774-1.6775v-3.3548h8.5314c1.752 0 3.1762-1.4124 3.2055-3.1577l1.4518.3111c4.9937 1.0702 8.6178 5.5539 8.6178 10.6608v2.7418c0 .4328-.1409.8421-.3909 1.1859h-4.6414v1.6774h4.6414c.25.3439.3909.7532.3909 1.186v6.0152c0 .4328-.1409.8421-.3909 1.1859h-2.964v1.6775h2.964c.25.3438.3909.7531.3909 1.1859v4.3378c0 .4328-.1409.8421-.3909 1.1859h-6.3188V20.129h-1.6774Zm1.6774 28.5162h3.3548v1.6774h-3.3548v-1.6774Zm6.7097 1.6774h-1.6774v-1.6774h1.6774v1.6774Z"/><path fill="#1F2428" d="M30.1935 11.7419h5.0323v1.6775h-5.0323v-1.6775Z"/></svg>