<svg xmlns="http://www.w3.org/2000/svg" width="52" height="52" fill="none"><path fill="#fff" d="M0 0h52v52H0z"/><path fill="#41B7E9" d="M33.8741 17.1791h-16.346L15.5558 4.35593l5.6816 1.89442L25.7011 0l4.4645 6.25035 5.6816-1.89442-1.9731 12.82317Z"/><path fill="#1F2428" d="M31.09 17.1791h-2.0726l-3.3163 4.4214-3.3163-4.4214h-2.0727l5.389 7.1855 5.3889-7.1855ZM24.8721 47.0255h1.6581v1.6581h-1.6581v-1.6581ZM29.8464 47.0255h1.6582v1.6581h-1.6582v-1.6581ZM19.8976 47.0255h1.6581v1.6581h-1.6581v-1.6581ZM24.8721 10.5465h1.6581v1.6581h-1.6581v-1.6581ZM21.5558 10.5465h1.6581v1.6581h-1.6581v-1.6581ZM28.1884 10.5465h1.6581v1.6581h-1.6581v-1.6581Z"/><path fill="#1F2428" d="M51.4022 12.2503c0-1.3199-.514-2.56101-1.4475-3.49454l-.8664-.86638-14.8685 7.04292-.3457 2.2468h-.941l2.3421 1.4053c.742.4452 1.2038 1.2601 1.2038 2.1265 0 .6873-.2893 1.3497-.7926 1.8165l-9.9853 9.2723-9.9853-9.2723c-.5032-.4668-.7926-1.1292-.7926-1.8165 0-.8664.4618-1.6805 1.2038-2.1265l2.3422-1.4053h-.941l-.1924-1.2536-.1525-.994L2.31393 7.88855l-.86638.86721C.514022 9.68929 0 10.9304 0 12.2503c0 1.8098.986591 3.4721 2.57592 4.3385l.38385.2089c-.82243.8059-1.30163 1.9069-1.30163 3.0825 0 1.7087 1.00897 3.2607 2.57011 3.9547l.56128.2495c-.93105.8009-1.47326 1.969-1.47326 3.216 0 1.7476 1.04878 3.2963 2.67126 3.9447l9.76727 3.9065 5.8831 8.5577h-2.3728c-.9485 0-1.8008.5264-2.2253 1.3746l-1.8869 3.7747c-.1501.3001-.2297.6359-.2297.9709 0 1.1971.9742 2.1705 2.1705 2.1705h17.2148c1.1964 0 2.1705-.9734 2.1705-2.1705 0-.335-.0796-.6708-.2288-.9709l-1.887-3.7747c-.4245-.8482-1.2776-1.3746-2.2252-1.3746h-2.3736l5.8831-8.5577 9.7672-3.9074c1.6225-.6483 2.6713-2.197 2.6713-3.9438 0-1.247-.5422-2.4143-1.4725-3.216l.5613-.2495c1.5612-.694 2.5701-2.246 2.5701-3.9547 0-1.1756-.4792-2.2766-1.3016-3.0825l.383-.2089c1.5894-.8656 2.5759-2.5287 2.5759-4.3385ZM4.97441 27.3004c0-.8681.43195-1.6739 1.15406-2.1556l.41868-.2794 3.06507 1.3621.67408-1.5147-5.38485-2.3935c-.96255-.4278-1.58518-1.3854-1.58518-2.4391 0-.8946.44438-1.7245 1.18889-2.2202l.01575-.01 5.03162 2.745.79337-1.4558-6.97574-3.8054c-1.05623-.5762-1.71202-1.6805-1.71202-2.8835 0-.8772.34157-1.7021.96172-2.32224l.04062-.0398L16.4844 16.4362l-1.2105.7263c-1.2386.7429-2.0088 2.1034-2.0088 3.5484 0 1.1466.4817 2.2526 1.3224 3.0319l1.3215 1.227-1.0612 1.0604c-1.0206 1.0206-1.5827 2.3778-1.5827 3.822 0 1.0148.2927 1.9906.8266 2.8487l-7.489-2.9954c-.98908-.3963-1.62829-1.3398-1.62829-2.4051Zm10.60789 4.6751c-.4311-.6285-.6591-1.3622-.6591-2.1233 0-1.0015.3897-1.9416 1.0969-2.6488l1.1043-1.1044 7.7477 7.1939v10.4164H23.65l-8.0677-11.7338Zm17.2969 13.8504 1.887 3.7747c.0364.0705.0547.1501.0547.2289 0 .2827-.2297.5123-.5124.5123H17.0937c-.2827 0-.5123-.2296-.5123-.5123 0-.0788.0182-.1584.0539-.2289l1.8869-3.7747c.1426-.2827.4262-.4585.742-.4585h12.873c.3167 0 .6002.1758.742.4585Zm-6.349-2.1166V33.2929l7.7476-7.1939 1.1044 1.1044c.7071.7072 1.0968 1.6481 1.0968 2.6488 0 .7611-.228 1.4948-.6591 2.1224l-8.0677 11.7347h-1.222Zm21.5027-28.5764-6.9758 3.8055.7934 1.4558 5.0317-2.745.0157.0099c.7437.4958 1.1889 1.3265 1.1889 2.2203 0 1.0537-.6226 2.0113-1.5852 2.4391l-5.384 2.3927.6741 1.5147 3.065-1.3622.4187.2794c.7221.4817 1.1541 1.2876 1.1541 2.1556 0 1.0654-.6392 2.0097-1.6283 2.4051l-7.489 2.9955c.5323-.8565.8249-1.8323.8249-2.8471 0-1.4442-.5621-2.8014-1.5826-3.8211l-1.0613-1.0604 1.3216-1.227c.8407-.7802 1.3223-1.8862 1.3223-3.0328 0-1.445-.7702-2.8047-2.0088-3.5484l-1.2104-.7263 13.8239-6.54794.0406.0398c.6201.62014.9617 1.44504.9617 2.32224 0 1.203-.6558 2.3073-1.7112 2.8826Z"/></svg>