<svg xmlns="http://www.w3.org/2000/svg" width="60" height="60" fill="none"><path fill="#fff" d="M0 0h60v60H0z"/><path fill="#41B7E9" d="M46.4516 30.9677h-9.6774v-8.7096h9.6774v8.7096ZM50 9.85484c0 4.33806-3.5167 7.85486-7.8548 7.85486h-1.2904C36.5167 17.7097 33 14.1929 33 9.85484 33 5.51673 36.5167 2 40.8548 2h1.2904C46.4833 2 50 5.51673 50 9.85484ZM26.129 59.9999c-4.8019 0-8.7097-3.9077-8.7097-8.7097 0-4.8019 3.9078-8.7096 8.7097-8.7096s8.7097 3.9077 8.7097 8.7096c0 4.802-3.9078 8.7097-8.7097 8.7097Zm0-12.5806c-2.1348 0-3.871 1.7361-3.871 3.8709 0 2.1349 1.7362 3.871 3.871 3.871 2.1348 0 3.871-1.7361 3.871-3.871 0-2.1348-1.7362-3.8709-3.871-3.8709ZM30.9678 37.7419h9.6774v4.8388h-9.6774v-4.8388Z"/><path fill="#1F2428" d="M16.2455 19.619c-.3232-1.2949-1.4816-2.1997-2.8161-2.1997H9.67742v-1.9355h3.75198c2.2248 0 4.1545 1.5078 4.6945 3.6658l5.9235 23.6933c.6213-.1529 1.2668-.2429 1.9316-.2546l-5.9777-23.908c-.7548-3.0213-3.4568-5.132-6.5719-5.132H2.90323C1.30258 13.5483 0 14.8509 0 16.4516c0 1.6006 1.30258 2.9032 2.90323 2.9032H13.4294c.4441 0 .8303.3019.9387.7335l6.1403 24.5604c.5216-.4423 1.0964-.8197 1.7129-1.1304L16.2455 19.619ZM1.93548 16.4516c0-.5333.43452-.9678.96775-.9678h4.83871v1.9355H2.90323c-.53323 0-.96775-.4345-.96775-.9677ZM59.9023 44.7358c-.4036-1.5097-1.9965-2.4639-3.5536-2.0565l-.2196.0571V24.1935c0-1.6006-1.3026-2.9032-2.9033-2.9032H30c-1.6006 0-2.9032 1.3026-2.9032 2.9032v18.4442c.6716.0745 1.3181.2323 1.9355.451V24.1935c0-.5332.4345-.9677.9677-.9677h23.2258c.5333 0 .9678.4345.9678.9677v19.0597l-19.8087 5.2819c.2022.6058.3455 1.2378.4103 1.8939l22.049-5.88c.5245-.1403 1.0529.181 1.1884.6842.1374.5158-.1703 1.0481-.6852 1.1855l-22.5938 6.0251c-.1007.7529-.2913 1.4758-.572 2.1562l23.6642-6.3107c1.5455-.4132 2.4678-2.0071 2.0565-3.5535ZM26.129 46.4517c-2.6681 0-4.8387 2.1706-4.8387 4.8387 0 2.668 2.1706 4.8387 4.8387 4.8387 2.6681 0 4.8387-2.1707 4.8387-4.8387 0-2.6681-2.1706-4.8387-4.8387-4.8387Zm0 7.7419c-1.6007 0-2.9032-1.3026-2.9032-2.9032 0-1.6007 1.3025-2.9033 2.9032-2.9033 1.6006 0 2.9032 1.3026 2.9032 2.9033 0 1.6006-1.3026 2.9032-2.9032 2.9032Z"/><path fill="#1F2428" d="M26.129 52.258c.5345 0 .9677-.4333.9677-.9677 0-.5345-.4332-.9678-.9677-.9678s-.9677.4333-.9677.9678c0 .5344.4332.9677.9677.9677ZM40.6451 25.1614h1.9355v5.8064h-1.9355v-5.8064ZM34.8387 40.6453h1.9355v1.9354h-1.9355v-1.9354ZM30.9678 40.6453h1.9355v1.9354h-1.9355v-1.9354ZM38.7097 40.6453h1.9355v1.9354h-1.9355v-1.9354ZM30.9678 36.7742h9.6774v1.9355h-9.6774v-1.9355ZM41.6128 19.3548c5.3362 0 9.6775-4.3413 9.6775-9.67738C51.2903 4.34129 46.949 0 41.6128 0c-5.3361 0-9.6774 4.34129-9.6774 9.67742 0 5.33608 4.3413 9.67738 9.6774 9.67738Zm0-17.41932c4.2688 0 7.742 3.47323 7.742 7.74194 0 4.26868-3.4732 7.74198-7.742 7.74198-4.2687 0-7.7419-3.4733-7.7419-7.74198 0-4.26871 3.4732-7.74194 7.7419-7.74194Z"/><path fill="#1F2428" d="m44.2326 10.9286-1.652-1.65194V3.87085h-1.9355v6.20705l2.2191 2.2191 1.3684-1.3684ZM6.77419 40.6452h5.80641c1.6007 0 2.9033-1.3026 2.9033-2.9032 0-1.6007-1.3026-2.9033-2.9033-2.9033H4.83871c-.53323 0-.96774-.4345-.96774-.9677s.43451-.9677.96774-.9677h9.67739v-1.9355H4.83871c-1.60065 0-2.90323 1.3026-2.90323 2.9032s1.30258 2.9032 2.90323 2.9032h7.74189c.5333 0 .9678.4345.9678.9678 0 .5332-.4345.9677-.9678.9677H6.77419c-1.60064 0-2.90322 1.3026-2.90322 2.9032 0 1.6007 1.30258 2.9033 2.90322 2.9033h3.87101c.5332 0 .9677.4345.9677.9677s-.4345.9677-.9677.9677H2.90323C1.30258 46.4516 0 47.7542 0 49.3549c0 1.6006 1.30258 2.9032 2.90323 2.9032H15.4839v-1.9355H2.90323c-.53323 0-.96775-.4345-.96775-.9677 0-.5333.43452-.9678.96775-.9678h7.74197c1.6006 0 2.9032-1.3026 2.9032-2.9032s-1.3026-2.9032-2.9032-2.9032H6.77419c-.53322 0-.96774-.4345-.96774-.9678 0-.5332.43452-.9677.96774-.9677Z"/></svg>