<svg xmlns="http://www.w3.org/2000/svg" width="60" height="60" fill="none"><path fill="#fff" d="M0 0h60v60H0z"/><path fill="#41B7E9" d="M29.0323 19.3548H5.80646c-1.06742 0-1.93549-.868-1.93549-1.9354V9.67743c0-1.06742.86807-1.93549 1.93549-1.93549H29.0323c1.0674 0 1.9354.86807 1.9354 1.93549v7.74197c0 1.0674-.868 1.9354-1.9354 1.9354ZM41.6129 56.1289c-5.8694 0-10.6452-4.7758-10.6452-10.6451 0-5.8694 4.7758-10.6452 10.6452-10.6452 5.8694 0 10.6452 4.7758 10.6452 10.6452 0 5.8693-4.7758 10.6451-10.6452 10.6451Z"/><path fill="#1F2428" d="M57.0968 13.5484c-1.0181 0-1.9113.5284-2.43 1.3229l-4.0858-3.0648c-1.2233-.9175-2.64-1.5417-4.1294-1.86585V4.83871C46.4516 2.17065 44.281 0 41.6129 0c-2.6681 0-4.8387 2.17065-4.8387 4.83871v5.91479c-.689.3349-1.3365.7452-1.9355 1.2175V8.70968c0-2.66807-2.1706-4.83871-4.8387-4.83871H4.83871C2.17065 3.87097 0 6.04161 0 8.70968V47.4194c0 2.668 2.17065 4.8387 4.83871 4.8387H28.7845C31.2232 56.8568 36.0552 60 41.6129 60c8.0042 0 14.5161-6.5119 14.5161-14.5161 0-7.2233-5.309-13.2136-12.2264-14.3178l1.6413-4.3771c.7761.1955 1.5735.3078 2.3806.3078 1.0529 0 2.0932-.1684 3.0929-.5023l3.4674-1.1555c.4684.9765 1.4584 1.6578 2.612 1.6578H60V13.5484h-2.9032ZM38.7097 7.74194h1.9355v8.12226c-.6252-.2023-1.2755-.3242-1.9355-.361V7.74194Zm3.8709 0h1.9355V18.3087l-1.4177-1.1342c-.1674-.1335-.3407-.2593-.5178-.3784V7.74194Zm-.9677-5.80646c1.6006 0 2.9032 1.30258 2.9032 2.90323v.96774h-5.8064v-.96774c0-1.60065 1.3026-2.90323 2.9032-2.90323ZM36.7742 12.9619v2.8829c-1.141.5604-1.9355 1.7236-1.9355 3.0784 0 .1152.0107.2284.0223.3426-.1491.0571-.3087.0881-.4723.0881h-.1597c-.3542 0-.6871-.1384-.9377-.3881-.2507-.2497-.3881-.5835-.3881-.9387 0-.2303.061-.4577.1752-.6581l.7819-1.3684c.7065-1.2358 1.7158-2.2809 2.9139-3.0387Zm-1.9355 8.2858c.2584-.0358.5119-.0938.7519-.1887.2526.3194.5594.5991.9175.8139l.2661.1587v2.3371l2.549 6.7974c-1.5948.2545-3.1064.7578-4.4845 1.4884V21.2477ZM4.83871 50.3226c-1.60065 0-2.90323-1.3026-2.90323-2.9032V8.70968c0-1.60065 1.30258-2.90323 2.90323-2.90323H30c1.6006 0 2.9032 1.30258 2.9032 2.90323v5.24612c-.2603.3474-.5071.7055-.7238 1.0848l-.7829 1.3694c-.2807.4916-.4288 1.051-.4288 1.6171 0 .871.3397 1.6906.9552 2.3071.2865.2864.6203.5061.9803.6668v12.8971c-.6967.5254-1.3442 1.11-1.9355 1.7496v-2.7445c0-1.0674-.868-1.9355-1.9354-1.9355h-3.871c-1.0674 0-1.9355.8681-1.9355 1.9355v3.871c0 1.0674.8681 1.9355 1.9355 1.9355h3.6232c-.3281.6184-.6029 1.2677-.84 1.9355h-2.7832c-1.0674 0-1.9355.868-1.9355 1.9354v3.871c0 1.0674.8681 1.9355 1.9355 1.9355h2.2277c.1355.6648.331 1.3064.5545 1.9355H4.83871Zm22.30739-3.871h-1.9848v-3.871h2.2277c-.1906.9388-.2922 1.9094-.2922 2.9033 0 .3271.028.6464.0493.9677Zm1.8871-9.6774h-3.8719v-3.871h3.871l.0009 3.871Zm20.7552 1.9026 1.3684-1.3684c1.6906 1.9703 2.7784 4.4661 2.9884 7.2068h-1.9355c.028.3203.0484.6416.0484.9687 0 .3271-.0204.6484-.0494.9677h1.9355c-.21 2.7416-1.2977 5.2365-2.9884 7.2068L49.7874 52.29c-.4142.4964-.8719.9542-1.3684 1.3684l1.3684 1.3684c-1.9703 1.6906-4.4661 2.7784-7.2068 2.9884v-1.9355c-.3193.029-.6406.0493-.9677.0493-.3271 0-.6484-.0203-.9677-.0493v1.9355c-2.7417-.21-5.2365-1.2978-7.2068-2.9884l1.3684-1.3684c-.4965-.4142-.9542-.872-1.3684-1.3684L32.07 53.6584c-1.6906-1.9703-2.7784-4.4661-2.9884-7.2068h1.9355c-.029-.3193-.0494-.6406-.0494-.9677 0-.3271.0204-.6484.0494-.9678h-1.9355c.21-2.7416 1.2978-5.2364 2.9884-7.2067l1.3684 1.3683c.4142-.4964.8719-.9542 1.3684-1.3683l-1.3684-1.3684c1.9703-1.6907 4.4661-2.7784 7.2068-2.9884v1.9355c.3193-.0291.6406-.0494.9677-.0494.3271 0 .6484.0203.9677.0494v-1.9355c2.7417.21 5.2365 1.2977 7.2068 2.9884l-1.3684 1.3684c.4975.4132.9552.8709 1.3694 1.3674ZM41.91 30.9677h-.5942l-2.6061-6.9493v-.8255l4.1835 2.5094c.2681.1606.5507.2912.8313.4258L41.91 30.9677Zm8.4948-6.209c-2.1483.7171-4.5735.45-6.5158-.7152l-6.3842-3.8303c-.4509-.2709-.7306-.7645-.7306-1.29 0-.8293.6745-1.5038 1.5039-1.5038 1.3074 0 2.5896.45 3.6106 1.2667l3.2555 2.6042h5.1784v-1.9355h-3.871v-7.4429c1.0684.2875 2.0787.7771 2.9671 1.4429l4.7748 3.5807v6.5603l-3.7887 1.2629Zm7.6597.4026h-.9677c-.5333 0-.9678-.4345-.9678-.9678v-7.7419c0-.5332.4345-.9677.9678-.9677h.9677v9.6774Z"/><path fill="#1F2428" d="M9.67742 21.2903H5.80646c-1.06742 0-1.93549.868-1.93549 1.9355v3.8709c0 1.0675.86807 1.9355 1.93549 1.9355h3.87096c1.06738 0 1.93548-.868 1.93548-1.9355v-3.8709c0-1.0675-.8681-1.9355-1.93548-1.9355Zm-3.87096 5.8064v-3.8709h3.87096l.00097 3.8709H5.80646ZM19.3549 21.2903h-3.871c-1.0674 0-1.9355.868-1.9355 1.9355v3.8709c0 1.0675.8681 1.9355 1.9355 1.9355h3.871c1.0674 0 1.9354-.868 1.9354-1.9355v-3.8709c0-1.0675-.868-1.9355-1.9354-1.9355Zm-3.871 5.8064v-3.8709h3.871l.0009 3.8709h-3.8719ZM25.1613 29.0322h3.871c1.0674 0 1.9354-.868 1.9354-1.9355v-3.8709c0-1.0675-.868-1.9355-1.9354-1.9355h-3.871c-1.0674 0-1.9355.868-1.9355 1.9355v3.8709c0 1.0675.8681 1.9355 1.9355 1.9355Zm0-5.8064h3.871l.0009 3.8709h-3.8719v-3.8709ZM9.67742 30.9678H5.80646c-1.06742 0-1.93549.868-1.93549 1.9355v3.8709c0 1.0674.86807 1.9355 1.93549 1.9355h3.87096c1.06738 0 1.93548-.8681 1.93548-1.9355v-3.8709c0-1.0675-.8681-1.9355-1.93548-1.9355Zm-3.87096 5.8064v-3.8709h3.87096l.00097 3.8709H5.80646ZM19.3549 30.9678h-3.871c-1.0674 0-1.9355.868-1.9355 1.9355v3.8709c0 1.0674.8681 1.9355 1.9355 1.9355h3.871c1.0674 0 1.9354-.8681 1.9354-1.9355v-3.8709c0-1.0675-.868-1.9355-1.9354-1.9355Zm-3.871 5.8064v-3.8709h3.871l.0009 3.8709h-3.8719ZM9.67742 40.6453H5.80646c-1.06742 0-1.93549.868-1.93549 1.9354v3.871c0 1.0674.86807 1.9355 1.93549 1.9355h3.87096c1.06738 0 1.93548-.8681 1.93548-1.9355v-3.871c0-1.0674-.8681-1.9354-1.93548-1.9354Zm-3.87096 5.8064v-3.871h3.87096l.00097 3.871H5.80646ZM19.3549 40.6453h-3.871c-1.0674 0-1.9355.868-1.9355 1.9354v3.871c0 1.0674.8681 1.9355 1.9355 1.9355h3.871c1.0674 0 1.9354-.8681 1.9354-1.9355v-3.871c0-1.0674-.868-1.9354-1.9354-1.9354Zm-3.871 5.8064v-3.871h3.871l.0009 3.871h-3.8719ZM40.6452 42.5807h1.9355c.5332 0 .9677.4345.9677.9677h1.9355c0-1.6006-1.3026-2.9032-2.9032-2.9032v-1.9355h-1.9355v1.9355c-1.6007 0-2.9033 1.3026-2.9033 2.9032 0 1.6007 1.3026 2.9033 2.9033 2.9033h1.9355c.5332 0 .9677.4345.9677.9677s-.4345.9677-.9677.9677h-1.9355c-.5333 0-.9678-.4345-.9678-.9677h-1.9355c0 1.6006 1.3026 2.9032 2.9033 2.9032v1.9355h1.9355v-1.9355c1.6006 0 2.9032-1.3026 2.9032-2.9032 0-1.6007-1.3026-2.9032-2.9032-2.9032h-1.9355c-.5333 0-.9678-.4345-.9678-.9678 0-.5332.4345-.9677.9678-.9677Z"/></svg>