<svg xmlns="http://www.w3.org/2000/svg" width="60" height="60" fill="none"><path fill="#fff" d="M0 0h60v60H0z"/><path fill="#41B7E9" d="M47 36H34V23.2258h13V36ZM18 28H5V17h13v11ZM13.5484 4.83862h13.5484v7.74198H13.5484V4.83862ZM3.87097 31.9355H19.3548v7.742H3.87097v-7.742Z"/><path fill="#1F2428" d="M32.9032 37.7419h15.4839V22.2581H32.9032v15.4838Zm1.9355-13.5484h11.6129v11.6129H34.8387V24.1935Z"/><path fill="#1F2428" d="M60 30c0-1.3181-.4423-2.5761-1.2552-3.601.36-1.2561.2865-2.5877-.2177-3.8071-.5042-1.2184-1.3945-2.2103-2.5374-2.8442-.1481-1.2996-.7258-2.5016-1.6578-3.4345-.9319-.9319-2.1338-1.5087-3.4335-1.6577-.5739-1.0326-1.4497-1.8416-2.5103-2.3642V0H10.2445L0 10.2445V60h48.3871V47.7087c1.0606-.5226 1.9374-1.3316 2.5103-2.3642 1.2987-.149 2.5007-.7258 3.4326-1.6587.9329-.9319 1.5106-2.1329 1.6587-3.4335 1.1429-.6339 2.0332-1.6268 2.5374-2.8442.5042-1.2194.5778-2.551.2178-3.8071C59.5577 32.5761 60 31.3181 60 30ZM9.67742 3.30387v6.37355H3.30387l6.37355-6.37355ZM1.93548 58.0645V11.6129h9.67742V1.93548h34.8387v9.79062c-.7364-.0793-1.4835-.0329-2.2064.1752-2.0468-1.6278-5.1523-1.6278-7.1991 0-1.258-.361-2.5896-.2884-3.8071.2177-1.2184.5052-2.2113 1.3945-2.8451 2.5375-1.2997.149-2.5016.7258-3.4336 1.6577-.9329.9329-1.5097 2.1348-1.6577 3.4345-1.1429.6339-2.0332 1.6268-2.5374 2.8442-.5042 1.2194-.5778 2.551-.2178 3.8071-.8148 1.0239-1.2571 2.2819-1.2571 3.6 0 1.3181.4423 2.5761 1.2552 3.601-.36 1.2561-.2865 2.5877.2177 3.8071.5042 1.2183 1.3945 2.2103 2.5374 2.8442.1481 1.3006.7259 2.5016 1.6578 3.4335.9329.9329 2.1348 1.5097 3.4335 1.6587.6349 1.1429 1.6268 2.0323 2.8452 2.5374 1.2184.5042 2.55.5787 3.8071.2178 1.0248.8129 2.2819 1.2551 3.601 1.2551 1.319 0 2.5761-.4422 3.6-1.2561.7229.2071 1.47.2536 2.2064.1742v9.7916H1.93548ZM56.9555 32.7058l-.4423.4519.2362.5855c.3812.9474.3764 1.9858-.0117 2.9236-.388.9367-1.1196 1.6732-2.0593 2.0748l-.5816.2487-.0068.631c-.0106 1.0229-.4113 1.979-1.1294 2.6961-.718.7171-1.6751 1.1178-2.6971 1.1294l-.6319.0067-.2477.5817c-.4007.9396-1.1381 1.6713-2.0749 2.0593-.9367.3871-1.9761.3929-2.9235.0116l-.5865-.2361-.4519.4423c-1.4603 1.4312-3.9494 1.4312-5.4097 0l-.4519-.4423-.5865.2361c-.9474.3823-1.9858.3784-2.9235-.0116-.9368-.388-1.6742-1.1197-2.0749-2.0593l-.2477-.5817-.6319-.0067c-1.022-.0116-1.9791-.4123-2.6971-1.1294-.7171-.7171-1.1178-1.6732-1.1284-2.6961l-.0068-.631-.5816-.2487c-.9397-.4006-1.6713-1.1381-2.0594-2.0748-.388-.9378-.3919-1.9762-.0116-2.9236l.2362-.5855-.4423-.4519c-.7103-.7306-1.1042-1.6916-1.1042-2.7058s.3939-1.9752 1.109-2.7058l.4423-.4519-.2361-.5855c-.3813-.9474-.3765-1.9858.0116-2.9236.388-.9367 1.1197-1.6732 2.0593-2.0748l.5816-.2487.0068-.631c.0107-1.0219.4113-1.98 1.1294-2.6971.7171-.7161 1.6742-1.1168 2.6971-1.1284l.6319-.0067.2478-.5817c.4006-.9396 1.138-1.6713 2.0748-2.0593.9368-.3871 1.9761-.3929 2.9235-.0116l.5865.2361.4519-.4423c1.4603-1.4312 3.9494-1.4312 5.4097 0l.4519.4423.5865-.2361c.9474-.3823 1.9858-.3784 2.9235.0116.9368.388 1.6742 1.1197 2.0749 2.0593l.2477.5817.632.0067c1.0219.0116 1.98.4123 2.697 1.1284.7171.7171 1.1188 1.6752 1.1294 2.6971l.0068.631.5816.2487c.9397.4006 1.6713 1.1381 2.0593 2.0748.3881.9378.392 1.9762.0117 2.9236l-.2362.5855.4423.4519c.7093.7306 1.1032 1.6916 1.1032 2.7058s-.3939 1.9752-1.109 2.7058Z"/><path fill="#1F2428" d="M40.6452 16.4517c-7.471 0-13.5484 6.0774-13.5484 13.5483 0 7.471 6.0774 13.5484 13.5484 13.5484 7.471 0 13.5484-6.0774 13.5484-13.5484 0-7.4709-6.0774-13.5483-13.5484-13.5483Zm0 25.1612c-6.4036 0-11.6129-5.2093-11.6129-11.6129 0-6.4035 5.2093-11.6129 11.6129-11.6129 6.4035 0 11.6129 5.2094 11.6129 11.6129 0 6.4036-5.2094 11.6129-11.6129 11.6129ZM28.0645 53.2257v-2.9032c0-1.6006-1.3026-2.9032-2.9032-2.9032-1.6007 0-2.9032 1.3026-2.9032 2.9032v1.1884c0 .4113-.3349.7471-.7471.7471-.3097 0-.5904-.1945-.6997-.4839L19.02 46.9973c-.5564-1.4845-1.9964-2.4812-3.5816-2.4812-1.4487 0-2.7116.809-3.361 1.9993l-3.0503-3.0503c-.57-.571-1.32871-.8845-2.13581-.8845-1.66548 0-3.02032 1.3548-3.02032 3.0203v.1306c0 .6833.23516 1.3529.66194 1.8871l2.14838 2.6855c.6842.8545 1.06065 1.9287 1.06065 3.0223v2.8026h1.93548v-2.8026c0-1.5329-.52742-3.0358-1.48451-4.232L6.04452 46.409c-.15387-.1917-.23806-.4317-.23806-.6775v-.1306c0-.5981.48677-1.0848 1.08483-1.0848.29033 0 .56226.1122.76742.3174l3.95419 3.9542v4.438c0 1.6007 1.3026 2.9033 2.9032 2.9033 1.6007 0 2.9033-1.3026 2.9033-2.9033v-.1664c0-.7752-.302-1.5049-.8507-2.0526l-2.9922-2.9923c.1558-.8874.9319-1.5629 1.8619-1.5629.7839 0 1.4952.4936 1.77 1.2262l1.7903 4.7767c.391 1.0394 1.4003 1.7391 2.5123 1.7391 1.4787 0 2.6826-1.2039 2.6826-2.6826v-1.1884c0-.5342.4345-.9677.9677-.9677s.9677.4335.9677.9677v2.9032c0 1.6007 1.3026 2.9033 2.9033 2.9033H30v-1.9355h-.9677c-.5333 0-.9678-.4336-.9678-.9678Zm-12.8642-.8506c.18.1809.2836.4297.2836.6842v.1664c0 .5342-.4345.9678-.9678.9678-.5332 0-.9677-.4336-.9677-.9678v-2.5026l1.6519 1.652ZM13.5484 3.87085h13.5484v1.93548H13.5484V3.87085ZM13.5484 7.74194h13.5484v1.93549H13.5484V7.74194ZM13.5484 11.6128h13.5484v1.9355H13.5484v-1.9355ZM19.3548 15.4839H3.87097v13.5484H19.3548V15.4839Zm-1.9354 11.6129H5.80646v-9.6774H17.4194v9.6774ZM3.87097 30.9678H19.3548v1.9355H3.87097v-1.9355ZM3.87097 34.8386H19.3548v1.9355H3.87097v-1.9355ZM3.87097 38.7097H19.3548v1.9355H3.87097v-1.9355Z"/></svg>