<svg xmlns="http://www.w3.org/2000/svg" width="60" height="60" fill="none"><path fill="#fff" d="M0 0h60v60H0z"/><path fill="#41B7E9" d="M6.77417.967773H53.2258V7.74197H6.77417V.967773ZM41.3804 26.1096c-1.6623-.1682-2.9745-1.5031-3.3025-3.1423l-.3359-1.677v.9398c0 1.8703-1.3028 3.5776-3.1518 3.8564-2.0083.3029-3.8356-1.0259-4.2207-2.9496L30 21.2903l-.3426 1.7148c-.3175 1.5872-1.5716 2.8829-3.1773 3.0908-2.279.2963-4.222-1.47-4.222-3.69v-1.1156l-.336 1.677c-.3279 1.6383-1.6401 2.9741-3.3025 3.1423-1.2517.1267-2.3768-.3775-3.1357-1.2191v11.8837c0 1.0693.8661 1.9354 1.9355 1.9354h25.1613c1.0693 0 1.9354-.8661 1.9354-1.9354V24.8905c-.7598.8416-1.8853 1.3458-3.1357 1.2191Z"/><path fill="#1F2428" d="M7.74194 48.3872h1.93549v1.9355H7.74194v-1.9355ZM3.87097 48.3872h1.93549v1.9355H3.87097v-1.9355ZM11.6129 48.3872h1.9355v1.9355h-1.9355v-1.9355Z"/><path fill="#1F2428" d="M55.1613 13.5484h-.9678V0H5.80645v11.6129h1.93549V1.93548H52.2581V15.4839h2.9032c1.6004 0 2.9032 1.3027 2.9032 2.9032v28.0645H19.5831l-3.871-1.9355H1.93548v-26.129c0-1.6005 1.30277-2.9032 2.90323-2.9032h.96774v27.0967H54.1935V17.4194h-1.9354v23.2258H7.74194V13.5484H4.83871C2.1708 13.5484 0 15.7192 0 18.3871v30.9677c0 2.6679 2.1708 4.8387 4.83871 4.8387H17.4194v3.871h-3.871V60h32.9032v-1.9355h-3.871v-3.871h12.5807c2.6679 0 4.8387-2.1708 4.8387-4.8387V18.3871c0-2.6679-2.1708-4.8387-4.8387-4.8387ZM40.6452 58.0645H19.3548v-3.871h21.2904v3.871Zm14.5161-5.8064H4.83871c-1.60046 0-2.90323-1.3028-2.90323-2.9033v-2.9032H15.2556l3.871 1.9355h38.9379v.9677c0 1.6005-1.3028 2.9033-2.9032 2.9033Z"/><path fill="#1F2428" d="M9.67737 3.87085h1.93553v1.93548H9.67737V3.87085ZM13.5483 3.87085h1.9355v1.93548h-1.9355V3.87085ZM17.4193 3.87085h1.9355v1.93548h-1.9355V3.87085ZM13.5483 22.4059c0 2.5871 2.1037 4.6908 4.6908 4.6908 1.584 0 3.0086-.8109 3.862-2.0593.8449 1.2413 2.2677 2.0593 3.88 2.0593 1.6789 0 3.1896-.9021 4.0189-2.28.8302 1.3788 2.3399 2.28 4.0188 2.28 1.6113 0 3.0351-.818 3.88-2.0593.8543 1.2484 2.278 2.0593 3.862 2.0593 2.5871 0 4.6908-2.1037 4.6908-4.6908v-.5118c0-.5051-.0813-1.0055-.241-1.4837l-2.9321-8.7976H16.7214l-2.9321 8.7976c-.1597.4782-.241.9786-.241 1.4837v.5118Zm28.3344-8.8576 2.4921 7.4749c.094.2807.1413.5737.1413.8709v.5118c0 1.5196-1.2357 2.7553-2.7553 2.7553-1.3094 0-2.4435-.9309-2.701-2.2152l-.3502-1.6095v-.0463h-.0094l-1.686-7.7419h4.8685Zm-5.1086 7.8463v1.0113c0 1.5196-1.2356 2.7553-2.7553 2.7553-1.3094 0-2.4434-.9309-2.701-2.2152l-.3501-1.7517v-7.646h4.0628l1.7436 7.8463Zm-7.7419-7.8463v7.646l-.3501 1.7526c-.2576 1.2834-1.3926 2.2143-2.701 2.2143-1.5197 0-2.7553-1.2357-2.7553-2.7553v-.861l1.7436-7.9966h4.0628Zm-13.5484 8.3458c0-.2972.0473-.5902.1413-.8709l2.4921-7.4749h4.8695l-1.6771 7.5524-.3695 1.8462c-.2575 1.2834-1.3925 2.2143-2.701 2.2143-1.5196 0-2.7553-1.2357-2.7553-2.7553v-.5118ZM33.871 38.7096v-9.6774h-7.742v9.6774h1.9355v-7.7419h3.871v7.7419h1.9355Z"/></svg>